<?xml version="1.0" encoding="UTF-8"?>
<!-- Generator: Adobe Illustrator 13.0.0, SVG Export Plug-In . SVG Version: 6.00 Build 14948)  -->
<!DOCTYPE svg PUBLIC "-//W3C//DTD SVG 1.0//EN" "http://www.w3.org/TR/2001/REC-SVG-20010904/DTD/svg10.dtd">
<svg version="1.0" id="Layer_1" xmlns="http://www.w3.org/2000/svg" xmlns:xlink="http://www.w3.org/1999/xlink" x="0px" y="0px" width="192.756px" height="192.756px" viewBox="0 0 192.756 192.756" enable-background="new 0 0 192.756 192.756" xml:space="preserve">
<g>
	<polygon fill-rule="evenodd" clip-rule="evenodd" fill="#FFFFFF" points="0,0 192.756,0 192.756,192.756 0,192.756 0,0  "/>
	<path fill-rule="evenodd" clip-rule="evenodd" d="M32.545,96.24c0.967,0,1.382,0.967,1.382,2.487v10.5   c0,5.527-2.764,5.666-3.869,5.113c-1.382-0.691-1.658-3.041-1.658-5.25V98.727c0-1.52,0.553-2.487,1.52-2.487v-0.553h-5.665v0.553   c0.967,0,1.382,0.967,1.382,2.487v11.469c0,2.072,1.244,5.389,4.145,5.664c2.901,0.139,4.836-1.658,4.836-6.77V98.727   c0-1.52,0.552-2.487,1.381-2.487v-0.553h-3.454V96.24L32.545,96.24z"/>
	<path fill-rule="evenodd" clip-rule="evenodd" d="M42.631,95.687h-5.389v0.553c0.967,0,1.52,0.967,1.52,2.487v13.541   c0,1.52-0.552,2.486-1.52,2.486v0.553h5.803c1.244,0,2.487-0.691,3.731-2.211c1.934-2.625,2.487-8.289,1.52-11.744   C47.329,96.931,45.118,95.687,42.631,95.687L42.631,95.687z M45.395,110.609c-0.276,1.381-0.691,3.869-3.178,3.869   c-0.691,0-0.691-0.277-0.691-1.797V98.312c0-1.52,0-1.658,0.691-1.658c0.967,0,1.658-0.138,2.487,1.52   C46.085,100.799,46.085,107.154,45.395,110.609L45.395,110.609z"/>
	<path fill-rule="evenodd" clip-rule="evenodd" d="M86.982,85.601H84.91l2.763-6.908c0,0,0,0,5.389,0c0,0,0-0.138,0,6.908h-2.487   c0,0,0,0,0,1.106c0,0,0,0,15.06,0c0,0,0,0,0-1.106h-2.486c0,0,0,0,0-10.086h3.73c1.382,0,2.487-1.243,2.487-2.349v-9.671   c0-0.829-0.968-2.21-2.626-2.21l0,0H90.575v1.105h1.935l-8.98,23.212h-1.935v1.106h5.388V85.601L86.982,85.601z M103.148,62.389   h1.796c0.414,0,0.69,0.276,0.69,0.691v10.639c0,0.414-0.276,0.69-0.69,0.69h-1.796v-5.388v-1.244V62.389L103.148,62.389z    M96.654,62.389h2.901v23.212h-2.901V62.389L96.654,62.389z M93.062,64.6v12.849H87.95L93.062,64.6L93.062,64.6z"/>
	<path fill-rule="evenodd" clip-rule="evenodd" d="M54.237,114.479c-0.829-0.139-0.967-0.553-0.967-1.936v-6.631   c1.934,0.137,2.349,0.689,2.901,4.283h0.276v-9.535h-0.276c-0.552,3.594-0.967,4.008-2.901,4.283v-6.631   c0-1.52,0.138-1.796,0.691-1.658h1.52c2.764,0.138,2.902,4.006,3.04,4.975h0.415v-5.942h-9.81v0.553   c0.829,0,1.382,0.967,1.382,2.487v13.541c0,1.52-0.553,2.486-1.382,2.486v0.553h9.948l0.691-5.941h-0.415   C58.106,113.51,56.724,114.754,54.237,114.479L54.237,114.479z"/>
	<path fill-rule="evenodd" clip-rule="evenodd" d="M22.874,91.68l-5.803-0.138v1.105h1.796l-8.428,21.831H8.504v1.105h5.112v-1.105   h-2.073l2.625-6.494c0,0,0.138,0,5.112,0c0,0,0,0,0,6.494h-2.349c0,0,0,0.137,0,1.105c0,0,0.415,0,8.152,0v-1.105h-2.21V91.68   L22.874,91.68z M19.281,107.154h-4.698l4.698-12.158V107.154L19.281,107.154z"/>
	<path fill-rule="evenodd" clip-rule="evenodd" d="M126.913,91.542L126.913,91.542h-9.119v1.105h2.211v21.831h-2.487v1.105   c1.935,0,4.974,0,8.428,0c0,0,0-0.139,0-1.105h-2.349c0,0,0,0,0-9.535h3.593c1.243,0,2.211-1.242,2.211-2.072v-9.256   C129.4,92.923,128.57,91.542,126.913,91.542L126.913,91.542z M125.945,103.287c0,0.414-0.276,0.689-0.69,0.689h-1.658v-5.111   v-1.244v-4.974h1.658c0.414,0,0.69,0.276,0.69,0.552V103.287L125.945,103.287z"/>
	<path fill-rule="evenodd" clip-rule="evenodd" d="M144.045,107.016c0.968,0,1.383,0.969,1.383,2.488v3.73   c0,0.414,0,1.105-0.691,1.52c-0.414,0.277-0.967,0.277-1.382,0.277c-0.276,0-0.69,0-0.967-0.416   c-0.829-0.553-1.243-1.658-1.658-3.592c-0.276-1.244-0.414-3.316-0.414-5.389c0-2.211,0.138-4.283,0.414-5.527   c0.415-1.934,0.829-3.039,1.658-3.591c0.276-0.276,0.69-0.415,0.967-0.415c1.105,0,3.593,1.934,4.422,6.217h0.414v-6.908h-0.414   c-0.276,0.553-0.276,1.52-1.244,1.244c-0.553-0.276-1.657-1.105-3.178-1.244c-1.105,0-2.349,0.553-3.454,1.796   c-1.658,1.658-2.487,4.975-2.487,8.428c0,3.316,0.829,6.633,2.487,8.428c1.105,1.105,2.349,1.797,3.454,1.797   c0.553,0,1.105,0,1.658-0.139c0.415-0.137,2.764-0.689,3.178-1.381v-4.836c0-1.52,0.553-2.488,1.521-2.488v-0.551h-5.666V107.016   L144.045,107.016z"/>
	<path fill-rule="evenodd" clip-rule="evenodd" d="M158,96.24c0.968,0,1.382,0.967,1.382,2.487v10.5   c0,5.527-2.763,5.666-3.868,5.113c-1.382-0.691-1.658-3.041-1.658-5.25V98.727c0-1.52,0.553-2.487,1.52-2.487v-0.553h-5.664v0.553   c0.967,0,1.381,0.967,1.381,2.487v11.469c0,2.072,1.244,5.389,4.146,5.664c2.901,0.139,4.836-1.658,4.836-6.77V98.727   c0-1.52,0.553-2.487,1.381-2.487v-0.553H158V96.24L158,96.24z"/>
	<path fill-rule="evenodd" clip-rule="evenodd" d="M168.087,114.479c-0.968-0.139-0.968-0.553-0.968-1.936v-6.631   c1.935,0.137,2.211,0.689,2.764,4.283h0.414v-9.535h-0.414c-0.553,3.594-0.829,4.008-2.764,4.283v-6.631   c0-1.52,0.139-1.796,0.691-1.658h1.52c2.764,0.138,2.901,4.006,3.04,4.975h0.276v-5.942h-9.811v0.553   c0.968,0,1.52,0.967,1.52,2.487v13.541c0,1.52-0.552,2.486-1.52,2.486v0.553h9.948l0.829-5.941h-0.553   C171.817,113.51,170.573,114.754,168.087,114.479L168.087,114.479z"/>
	<path fill-rule="evenodd" clip-rule="evenodd" d="M173.89,95.687v5.803h0.414c0.139-0.691,0.139-2.072,0.968-3.592   c0.967-1.659,2.072-1.244,2.486-1.244v15.613c0,1.52-0.553,2.486-1.381,2.486v0.553h5.526v-0.553c-0.829,0-1.382-0.967-1.382-2.486   V96.654c0.414,0,1.52-0.415,2.487,1.244c0.829,1.52,0.829,2.9,0.967,3.592h0.276v-5.803H173.89L173.89,95.687z"/>
	<path fill-rule="evenodd" clip-rule="evenodd" d="M68.883,109.09l-3.592-13.403h-4.836v0.553c1.244,0,1.658,0.415,1.658,2.487   v13.541c0,1.52-0.414,2.486-1.52,2.486v0.553h3.869v-0.553c-0.967,0-1.52-0.967-1.52-2.486V98.174l4.697,17.133h0.415l4.836-17.133   v14.094c0,1.52-0.553,2.486-1.52,2.486v0.553h6.079v-0.553c-0.967,0-1.52-0.967-1.52-2.486V98.727c0-1.52,0.552-2.487,1.52-2.487   v-0.553h-4.698L68.883,109.09L68.883,109.09z"/>
	<path fill-rule="evenodd" clip-rule="evenodd" d="M101.904,113.648l-3.315-8.014c0.967-0.414,1.796-1.105,2.349-2.625   c0.69-1.797,0.276-4.145-0.414-5.389c-0.968-1.52-2.625-1.934-4.007-1.934h-5.388v0.553c0.829,0,1.381,0.967,1.381,2.487v13.541   c0,1.52-0.552,2.486-1.381,2.486h0.138v0.553h5.389v-0.553c-0.829,0-1.381-0.967-1.381-2.486v-6.08h0.414l3.592,9.119h3.454v-0.553   C102.457,114.754,102.319,114.893,101.904,113.648L101.904,113.648z M98.312,103.01c-0.553,2.625-2.211,2.211-3.04,2.211v-7.322   c0-0.83,0.414-1.244,0.69-1.244c1.382-0.276,1.935,0.691,2.21,1.797C98.45,99.141,98.589,101.629,98.312,103.01L98.312,103.01z"/>
	<path fill-rule="evenodd" clip-rule="evenodd" d="M88.917,113.373l-4.421-17.686h-0.415l-4.283,17.133   c-0.415,1.658-0.829,1.934-1.243,1.934v0.553h3.454v-0.553c-1.244,0-1.658-0.967-1.244-2.486l0.553-2.625h4.007l0.829,3.314   c0.276,1.521-0.829,1.797-1.52,1.797v0.553h5.389v-0.553l0,0C89.746,114.754,89.193,114.615,88.917,113.373L88.917,113.373z    M81.594,108.537l1.658-7.186l1.796,7.186H81.594L81.594,108.537z"/>
	<path fill-rule="evenodd" clip-rule="evenodd" d="M130.781,96.24c1.105,0,1.658,0.967,1.658,2.487v13.541   c0,1.52-0.553,2.486-1.658,2.486v0.553h5.941v-0.553c-1.105,0-1.52-0.967-1.52-2.486V98.727c0-1.52,0.414-2.487,1.52-2.487v-0.553   h-5.941V96.24L130.781,96.24z"/>
	<path fill-rule="evenodd" clip-rule="evenodd" d="M108.951,103.424c-2.211-1.105-2.901-2.625-2.901-3.867   c0-0.691,0.276-3.179,1.935-3.179c2.486,0,3.315,3.868,3.73,5.388h0.414v-6.355h-0.414c-0.276,0.553-0.276,0.967-0.691,0.967   c-0.967,0-1.796-0.967-3.73-0.967c-1.658,0-3.592,1.52-3.592,5.388c0,1.797,0.553,4.283,2.763,5.803   c3.04,2.211,4.146,3.041,4.146,4.697c0,0.691-0.276,3.594-2.764,3.594c-1.796,0-3.039-2.902-3.178-4.008l-0.414-2.072h-0.415v7.047   h0.415c0-0.553,0.138-0.967,0.276-0.967c0.967,0,2.625,0.967,3.73,0.967c4.145,0,4.835-3.73,4.835-5.664   C113.096,107.432,111.853,104.943,108.951,103.424L108.951,103.424z"/>
	<path fill-rule="evenodd" clip-rule="evenodd" d="M8.918,129.123c0.829,0,0.967-0.275,1.105-0.967l0.967-4.697   c0-0.139,0.138-0.277,0.138-0.416c0-0.414-0.415-0.551-0.83-0.551v-0.277h2.764v0.277c-0.829,0-0.967,0.275-1.105,0.967   l-0.967,4.697c0,0.139,0,0.275,0,0.414c0,0.277,0.138,0.277,0.691,0.277h0.69c0.829,0,1.244-0.277,1.52-1.105h0.138l-0.276,1.52   H8.918V129.123L8.918,129.123z"/>
	<path fill-rule="evenodd" clip-rule="evenodd" d="M16.379,126.084c0.138-0.553,0.553-1.383,1.244-1.383   c0.415,0,0.691,0.277,0.691,0.553c0,0.691-0.553,0.83-0.967,0.83H16.379L16.379,126.084z M18.452,128.848   c-0.277,0.137-0.415,0.137-0.691,0.137c-1.244,0-1.52-0.689-1.52-1.52c0-0.414,0-0.828,0.138-1.105h1.105   c0.829,0,1.658-0.137,1.658-0.967c0-0.691-0.69-1.105-1.381-1.105c-1.796,0-2.487,1.936-2.487,3.316   c0,1.244,0.69,1.797,1.658,1.797c0.691,0,1.243-0.139,1.52-0.277V128.848L18.452,128.848z"/>
	<path fill-rule="evenodd" clip-rule="evenodd" d="M24.808,125.531c0-0.139,0-0.277,0-0.414c0,0,0-0.139-0.138-0.139   s-0.552,0.414-0.829,0.691h-0.139c0.276-0.416,1.105-1.383,1.52-1.383c0.276,0,0.415,0.277,0.415,0.553c0,0.139,0,0.414,0,0.691   l-0.276,1.381v0.139c0.276-0.828,1.105-2.764,2.21-2.764c0.415,0,0.691,0.277,0.691,0.691c0,0.275-0.138,0.414-0.138,0.691   l-0.276,1.242v0.139c0.415-0.828,1.244-2.764,2.349-2.764c0.414,0,0.553,0.277,0.553,0.691c0,0.139,0,0.414,0,0.691l-0.691,2.625   c0,0.137,0,0.275,0,0.275c0,0.139,0,0.139,0.138,0.139s0.553-0.414,0.829-0.691l0.138,0.139c-0.276,0.275-1.105,1.244-1.52,1.244   c-0.276,0-0.415-0.139-0.415-0.416c0-0.275,0-0.553,0-0.689l0.691-2.625c0-0.139,0-0.277,0-0.416c0-0.137,0-0.275-0.276-0.275   c-0.691,0-2.073,3.316-2.21,4.283h-0.829l0.69-3.592c0-0.139,0-0.277,0-0.416c0-0.137,0-0.275-0.138-0.275   c-0.691,0-1.796,2.072-2.349,4.283h-0.829L24.808,125.531L24.808,125.531z"/>
	<path fill-rule="evenodd" clip-rule="evenodd" d="M33.098,128.018c0-1.105,0.829-3.316,1.935-3.316   c0.276,0,0.414,0.416,0.414,0.691c0,1.244-0.967,3.455-1.796,3.455C33.374,128.848,33.098,128.709,33.098,128.018L33.098,128.018z    M34.894,128.295c0,0.137,0,0.414,0,0.689c0,0.139,0.139,0.416,0.415,0.416c0.414,0,1.243-0.969,1.52-1.244l-0.138-0.139   c-0.276,0.277-0.691,0.691-0.829,0.691s-0.138,0-0.138-0.139c0,0,0-0.139,0-0.275l0.829-3.869h-0.829l-0.138,0.553l0,0   c-0.139-0.277-0.276-0.691-0.829-0.691c-1.52,0-2.487,2.764-2.487,3.869c0,0.553,0.138,1.244,0.967,1.244   c0.967,0,1.52-1.244,1.796-1.658l0,0L34.894,128.295L34.894,128.295z"/>
	<path fill-rule="evenodd" clip-rule="evenodd" d="M39.315,122.354c0.276-0.277,0.414-0.414,0.553-0.414   c0.138,0,0.276,0.137,0.414,0.414l0.553,1.242H40.42l-0.691-0.689l-1.105,0.689H38.21L39.315,122.354L39.315,122.354z    M40.282,128.156c-0.276,0.275-1.105,1.244-1.52,1.244c-0.276,0-0.414-0.139-0.414-0.416c0-0.275,0-0.553,0-0.689l0.553-2.764   c0.138-0.139,0.138-0.277,0.138-0.414c0-0.139-0.138-0.139-0.138-0.139c-0.139,0-0.691,0.414-0.967,0.691h-0.138   c0.415-0.416,1.105-1.383,1.658-1.383c0.276,0,0.415,0.277,0.415,0.553c0,0.139,0,0.414-0.139,0.691l-0.552,2.764   c0,0.137,0,0.275,0,0.275c0,0.139,0,0.139,0.138,0.139c0.138,0,0.553-0.414,0.829-0.691L40.282,128.156L40.282,128.156z"/>
	<path fill-rule="evenodd" clip-rule="evenodd" d="M43.875,128.156c-0.414,0.414-1.243,1.244-1.796,1.244   c-0.276,0-0.415-0.139-0.415-0.416c0-0.275,0-0.553,0.138-0.689l0.691-3.455h-0.967l0.138-0.414c0.967,0,1.52-0.414,1.796-1.52   h0.276l-0.415,1.52h1.382v0.414h-1.382l-0.69,3.455c0,0.137-0.138,0.275-0.138,0.275c0,0.139,0.138,0.139,0.138,0.139   c0.276,0,0.829-0.414,1.105-0.691L43.875,128.156L43.875,128.156z"/>
	<path fill-rule="evenodd" clip-rule="evenodd" d="M46.224,125.531c0-0.139,0-0.277,0-0.414c0,0,0-0.139-0.138-0.139   s-0.553,0.414-0.829,0.691h-0.138c0.276-0.416,0.967-1.383,1.52-1.383c0.276,0,0.415,0.277,0.415,0.553c0,0.139,0,0.414,0,0.691   l-0.139,0.691l0,0c0.139-0.416,0.691-1.936,1.52-1.936c0.415,0,0.553,0.277,0.553,0.553c0,0.277-0.276,0.553-0.553,0.553   c-0.138,0-0.276-0.139-0.414-0.139c-0.277,0-1.244,1.244-1.796,4.008h-0.829L46.224,125.531L46.224,125.531z"/>
	<path fill-rule="evenodd" clip-rule="evenodd" d="M50.645,126.084c0-0.553,0.415-1.383,1.243-1.383   c0.415,0,0.691,0.277,0.691,0.553c0,0.691-0.691,0.83-1.105,0.83H50.645L50.645,126.084z M52.717,128.848   c-0.276,0.137-0.553,0.137-0.691,0.137c-1.381,0-1.658-0.689-1.658-1.52c0-0.414,0.138-0.828,0.138-1.105h1.105   c0.829,0,1.796-0.137,1.796-0.967c0-0.691-0.691-1.105-1.382-1.105c-1.934,0-2.625,1.936-2.625,3.316   c0,1.244,0.691,1.797,1.796,1.797c0.691,0,1.105-0.139,1.382-0.277L52.717,128.848L52.717,128.848z"/>
	<path fill-rule="evenodd" clip-rule="evenodd" d="M58.796,128.018c0-0.967,0.691-3.316,1.796-3.316   c0.276,0,0.553,0.277,0.553,0.691c0,0.967-0.967,3.455-1.934,3.455C59.073,128.848,58.796,128.709,58.796,128.018L58.796,128.018z    M60.593,128.295c-0.138,0.137-0.138,0.414-0.138,0.689c0,0.139,0.138,0.416,0.415,0.416c0.553,0,1.382-0.969,1.658-1.244   l-0.139-0.139c-0.276,0.277-0.69,0.691-0.967,0.691c0,0-0.138,0-0.138-0.139c0,0,0-0.139,0.138-0.275l1.243-6.355l-1.796,0.137   v0.277c0.415,0,0.691,0,0.691,0.414c0,0.139,0,0.275,0,0.414l-0.276,1.658c-0.138-0.275-0.415-0.553-0.967-0.553   c-1.381,0-2.487,2.764-2.487,3.869c0,0.553,0.138,1.244,0.967,1.244c0.967,0,1.658-1.383,1.796-1.797h0.138L60.593,128.295   L60.593,128.295z"/>
	<path fill-rule="evenodd" clip-rule="evenodd" d="M64.738,126.084c0.138-0.553,0.553-1.383,1.382-1.383   c0.276,0,0.552,0.277,0.552,0.553c0,0.691-0.552,0.83-0.967,0.83H64.738L64.738,126.084z M66.811,128.848   c-0.139,0.137-0.415,0.137-0.691,0.137c-1.244,0-1.52-0.689-1.52-1.52c0-0.414,0-0.828,0.138-1.105h1.105   c0.829,0,1.658-0.137,1.658-0.967c0-0.691-0.553-1.105-1.243-1.105c-1.935,0-2.625,1.936-2.625,3.316   c0,1.244,0.691,1.797,1.658,1.797c0.691,0,1.244-0.139,1.52-0.277V128.848L66.811,128.848z"/>
	<path fill-rule="evenodd" clip-rule="evenodd" d="M74.271,128.156c-0.276,0.275-0.967,1.244-1.52,1.244   c-0.276,0-0.415-0.139-0.415-0.416c0-0.275,0-0.553,0-0.689l1.105-5.113c0-0.139,0-0.275,0-0.414c0-0.414-0.276-0.414-0.829-0.414   l0.138-0.277l1.658-0.137l-1.244,6.355c0,0.137,0,0.275,0,0.275c0,0.139,0,0.139,0.138,0.139s0.553-0.414,0.829-0.691   L74.271,128.156L74.271,128.156z"/>
	<path fill-rule="evenodd" clip-rule="evenodd" d="M76.344,124.426c0.276-0.139,0.691-0.553,0.691-0.967   c0-0.277-0.415-0.139-0.415-0.691c0-0.275,0.276-0.553,0.691-0.553c0.276,0,0.553,0.277,0.553,0.691   c0,0.689-0.829,1.244-1.105,1.52H76.344L76.344,124.426z"/>
	<path fill-rule="evenodd" clip-rule="evenodd" d="M80.074,123.182c0-0.139,0-0.275,0-0.414c0-0.414-0.276-0.414-0.829-0.414   l0.138-0.277l1.796-0.137l-1.105,5.25l0,0c0.415-0.967,1.382-2.902,2.349-2.902c0.415,0,0.691,0.277,0.691,0.691   c0,0.139-0.139,0.414-0.139,0.691l-0.553,2.625c0,0.137-0.138,0.275-0.138,0.275c0,0.139,0.138,0.139,0.138,0.139   c0.276,0,0.691-0.414,0.967-0.691l0.139,0.139c-0.277,0.275-1.106,1.244-1.658,1.244c-0.276,0-0.415-0.139-0.415-0.416   c0-0.275,0-0.553,0.138-0.689l0.553-2.625c0-0.139,0.138-0.277,0.138-0.416c0-0.137-0.138-0.275-0.276-0.275   c-0.829,0-2.073,3.178-2.349,4.283h-0.829L80.074,123.182L80.074,123.182z"/>
	<path fill-rule="evenodd" clip-rule="evenodd" d="M85.739,127.879c0-0.967,0.415-3.178,1.52-3.178c0.553,0,0.691,0.416,0.691,1.105   c0,0.969-0.415,3.316-1.52,3.316C86.016,129.123,85.739,128.709,85.739,127.879L85.739,127.879z M86.43,129.4   c1.658,0,2.487-1.797,2.487-3.178c0-1.105-0.415-1.936-1.658-1.936c-1.658,0-2.487,1.936-2.487,3.316   C84.772,128.57,85.325,129.4,86.43,129.4L86.43,129.4z"/>
	<path fill-rule="evenodd" clip-rule="evenodd" d="M90.99,125.531c0-0.139,0.138-0.277,0.138-0.414l-0.138-0.139   c-0.276,0-0.691,0.414-0.967,0.691h-0.138c0.276-0.416,1.105-1.383,1.658-1.383c0.276,0,0.415,0.277,0.415,0.553   c0,0.139,0,0.414-0.139,0.691l-0.138,0.691l0,0c0.276-0.416,0.829-1.936,1.658-1.936c0.276,0,0.415,0.277,0.415,0.553   c0,0.277-0.138,0.553-0.415,0.553s-0.415-0.139-0.553-0.139c-0.276,0-1.105,1.244-1.658,4.008h-0.83L90.99,125.531L90.99,125.531z"/>
	<path fill-rule="evenodd" clip-rule="evenodd" d="M96.378,128.156c-0.276,0.275-0.967,1.244-1.52,1.244   c-0.276,0-0.414-0.139-0.414-0.416c0-0.275,0-0.553,0-0.689l1.105-5.113c0-0.139,0-0.275,0-0.414c0-0.414-0.276-0.414-0.829-0.414   l0.138-0.277l1.658-0.137l-1.243,6.355c0,0.137,0,0.275,0,0.275c0,0.139,0,0.139,0.138,0.139c0.138,0,0.553-0.414,0.83-0.691   L96.378,128.156L96.378,128.156z"/>
	<path fill-rule="evenodd" clip-rule="evenodd" d="M98.45,127.879c0-0.967,0.553-3.178,1.658-3.178c0.415,0,0.69,0.416,0.69,1.105   c0,0.969-0.414,3.316-1.52,3.316C98.865,129.123,98.45,128.709,98.45,127.879L98.45,127.879z M99.279,129.4   c1.52,0,2.487-1.797,2.487-3.178c0-1.105-0.553-1.936-1.658-1.936c-1.658,0-2.487,1.936-2.487,3.316   C97.622,128.57,98.036,129.4,99.279,129.4L99.279,129.4z"/>
	<path fill-rule="evenodd" clip-rule="evenodd" d="M103.839,128.018c0-1.105,0.829-3.316,1.796-3.316   c0.139,0,0.553,0.139,0.553,0.691c0,0.967-0.967,3.455-1.934,3.455C103.978,128.848,103.839,128.709,103.839,128.018   L103.839,128.018z M107.155,124.426h-0.829v0.414c-0.139-0.275-0.415-0.553-0.829-0.553c-1.52,0-2.625,2.764-2.625,3.869   c0,0.553,0.138,1.244,0.967,1.244c1.105,0,1.658-1.244,1.796-1.797h0.139l-0.415,1.797c-0.138,0.553-0.414,1.795-1.243,1.795   c-0.69,0-0.553-0.828-1.105-0.828c-0.276,0-0.553,0.275-0.553,0.553c0,0.414,0.553,0.553,1.244,0.553   c1.796,0,2.21-0.967,2.486-2.072L107.155,124.426L107.155,124.426z"/>
	<path fill-rule="evenodd" clip-rule="evenodd" d="M109.366,126.084c0.138-0.553,0.552-1.383,1.381-1.383   c0.276,0,0.553,0.277,0.553,0.553c0,0.691-0.553,0.83-0.967,0.83H109.366L109.366,126.084z M111.438,128.848   c-0.139,0.137-0.415,0.137-0.691,0.137c-1.243,0-1.52-0.689-1.52-1.52c0-0.414,0-0.828,0.139-1.105h1.104   c0.829,0,1.658-0.137,1.658-0.967c0-0.691-0.553-1.105-1.243-1.105c-1.935,0-2.625,1.936-2.625,3.316   c0,1.244,0.69,1.797,1.657,1.797c0.691,0,1.244-0.139,1.521-0.277V128.848L111.438,128.848z"/>
	<path fill-rule="evenodd" clip-rule="evenodd" d="M114.201,125.531c0-0.139,0-0.277,0-0.414c0,0,0-0.139-0.138-0.139   s-0.69,0.414-0.968,0.691h-0.138c0.415-0.416,1.105-1.383,1.658-1.383c0.276,0,0.414,0.277,0.414,0.553   c0,0.139,0,0.414-0.138,0.691l-0.139,0.691l0,0c0.276-0.416,0.829-1.936,1.658-1.936c0.276,0,0.553,0.277,0.553,0.553   c0,0.277-0.276,0.553-0.553,0.553s-0.276-0.139-0.414-0.139c-0.276,0-1.244,1.244-1.797,4.008h-0.828L114.201,125.531   L114.201,125.531z"/>
	<path fill-rule="evenodd" clip-rule="evenodd" d="M119.729,128.156c-0.276,0.275-1.105,1.244-1.658,1.244   c-0.276,0-0.415-0.139-0.415-0.416c0-0.275,0.139-0.553,0.139-0.689l0.553-2.764c0-0.139,0-0.277,0-0.414v-0.139   c-0.276,0-0.691,0.414-0.968,0.691h-0.138c0.276-0.416,1.105-1.383,1.658-1.383c0.138,0,0.414,0.277,0.414,0.553   c0,0.139-0.138,0.414-0.138,0.691l-0.553,2.764c0,0.137-0.139,0.275-0.139,0.275c0,0.139,0.139,0.139,0.139,0.139   c0.276,0,0.69-0.414,0.967-0.691L119.729,128.156L119.729,128.156z M118.484,122.768c0-0.275,0.276-0.553,0.691-0.553   c0.276,0,0.553,0.277,0.553,0.553s-0.276,0.553-0.553,0.553C118.761,123.32,118.484,123.043,118.484,122.768L118.484,122.768z"/>
	<path fill-rule="evenodd" clip-rule="evenodd" d="M122.077,126.084c0-0.553,0.414-1.383,1.243-1.383   c0.415,0,0.691,0.277,0.691,0.553c0,0.691-0.691,0.83-1.105,0.83H122.077L122.077,126.084z M124.149,128.848   c-0.276,0.137-0.553,0.137-0.69,0.137c-1.382,0-1.658-0.689-1.658-1.52c0-0.414,0.138-0.828,0.138-1.105h1.105   c0.829,0,1.797-0.137,1.797-0.967c0-0.691-0.691-1.105-1.382-1.105c-1.935,0-2.625,1.936-2.625,3.316   c0,1.244,0.69,1.797,1.796,1.797c0.69,0,1.105-0.139,1.382-0.277L124.149,128.848L124.149,128.848z"/>
	<path fill-rule="evenodd" clip-rule="evenodd" d="M130.229,128.018c0-0.967,0.691-3.316,1.797-3.316   c0.276,0,0.552,0.277,0.552,0.691c0,0.967-0.967,3.455-1.934,3.455C130.505,128.848,130.229,128.709,130.229,128.018   L130.229,128.018z M132.025,128.295c-0.139,0.137-0.139,0.414-0.139,0.689c0,0.139,0.139,0.416,0.415,0.416   c0.552,0,1.243-0.969,1.657-1.244l-0.138-0.139c-0.276,0.277-0.829,0.691-0.968,0.691c0,0-0.138,0-0.138-0.139   c0,0,0-0.139,0.138-0.275l1.244-6.355l-1.796,0.137v0.277c0.414,0,0.69,0,0.69,0.414c0,0.139,0,0.275,0,0.414l-0.276,1.658   c-0.139-0.275-0.414-0.553-0.967-0.553c-1.382,0-2.487,2.764-2.487,3.869c0,0.553,0.139,1.244,0.967,1.244   c0.968,0,1.658-1.383,1.797-1.797h0.138L132.025,128.295L132.025,128.295z"/>
	<path fill-rule="evenodd" clip-rule="evenodd" d="M136.17,126.084c0.139-0.553,0.553-1.383,1.243-1.383   c0.415,0,0.691,0.277,0.691,0.553c0,0.691-0.553,0.83-0.968,0.83H136.17L136.17,126.084z M138.242,128.848   c-0.138,0.137-0.414,0.137-0.69,0.137c-1.243,0-1.52-0.689-1.52-1.52c0-0.414,0-0.828,0.138-1.105h1.105   c0.829,0,1.658-0.137,1.658-0.967c0-0.691-0.553-1.105-1.244-1.105c-1.934,0-2.625,1.936-2.625,3.316   c0,1.244,0.691,1.797,1.658,1.797c0.69,0,1.243-0.139,1.52-0.277V128.848L138.242,128.848z"/>
	<path fill-rule="evenodd" clip-rule="evenodd" d="M141.145,128.432c0-1.242,0.967-3.592,1.934-3.592   c0.276,0,0.415,0.414,0.415,0.83c0,1.242-0.829,3.453-1.797,3.453C141.282,129.123,141.145,128.709,141.145,128.432   L141.145,128.432z M138.657,131.473h2.763v-0.139c-0.414,0-0.828,0-0.828-0.553c0-0.139,0-0.275,0.138-0.414l0.139-1.383h0.138   c0.139,0.277,0.276,0.416,0.829,0.416c1.52,0,2.625-2.488,2.625-3.869c0-0.83-0.415-1.244-0.967-1.244   c-0.968,0-1.797,1.383-1.935,1.658l0,0l0.138-0.414c0-0.277,0-0.553,0-0.691c0-0.275-0.138-0.553-0.414-0.553   c-0.553,0-1.243,0.967-1.658,1.383h0.276c0.139-0.277,0.691-0.691,0.829-0.691c0.139,0,0.139,0.139,0.139,0.139   c0,0.137,0,0.275,0,0.414l-0.968,4.836c-0.138,0.691-0.414,0.967-1.243,0.967V131.473L138.657,131.473z"/>
	<path fill-rule="evenodd" clip-rule="evenodd" d="M148.881,127.051L148.881,127.051c-0.414,1.244-1.381,2.35-2.21,2.35   c-0.415,0-0.691-0.277-0.691-0.83c0-0.139,0.139-0.553,0.139-0.828l0.553-2.211c0-0.139,0-0.277,0-0.414v-0.139   c-0.276,0-0.691,0.414-0.968,0.691h-0.138c0.276-0.416,1.105-1.383,1.658-1.383c0.276,0,0.414,0.277,0.414,0.553   c0,0.139-0.138,0.414-0.138,0.691l-0.553,2.486c0,0.139-0.139,0.414-0.139,0.414c0,0.139,0.139,0.277,0.276,0.277   c0.691,0,2.211-2.35,2.349-4.283h0.829l-0.829,3.869c0,0.137,0,0.275,0,0.275c0,0.139,0,0.139,0.139,0.139s0.69-0.414,0.967-0.691   l0.139,0.139c-0.415,0.275-1.105,1.244-1.658,1.244c-0.276,0-0.415-0.139-0.415-0.416c0-0.275,0-0.553,0.139-0.689L148.881,127.051   L148.881,127.051z"/>
	<path fill-rule="evenodd" clip-rule="evenodd" d="M154.132,128.156c-0.415,0.275-1.105,1.244-1.658,1.244   c-0.276,0-0.414-0.139-0.414-0.416c0-0.275,0-0.553,0.138-0.689l0.553-2.764c0-0.139,0-0.277,0-0.414c0,0,0-0.139-0.139-0.139   c-0.138,0-0.552,0.414-0.828,0.691h-0.139c0.276-0.416,1.105-1.383,1.52-1.383c0.276,0,0.415,0.277,0.415,0.553   c0,0.139,0,0.414,0,0.691l-0.553,2.764c-0.139,0.137-0.139,0.275-0.139,0.275c0,0.139,0.139,0.139,0.139,0.139   c0.138,0,0.69-0.414,0.967-0.691L154.132,128.156L154.132,128.156z M152.888,122.768c0-0.275,0.276-0.553,0.553-0.553   c0.415,0,0.691,0.277,0.691,0.553s-0.276,0.553-0.691,0.553C153.164,123.32,152.888,123.043,152.888,122.768L152.888,122.768z"/>
	<path fill-rule="evenodd" clip-rule="evenodd" d="M158.276,125.67c0-0.553-0.276-0.969-0.967-0.969   c-0.414,0-0.829,0.277-0.829,0.83c0,0.967,1.796,0.828,1.796,2.211c0,1.242-0.967,1.658-2.21,1.658   c-0.553,0-0.968-0.139-1.105-0.139l0.138-1.244h0.276c0,0.414,0.139,1.105,0.968,1.105c0.553,0,1.104-0.414,1.104-1.105   c0-0.967-1.796-0.967-1.796-2.211c0-0.967,0.829-1.52,1.796-1.52c0.553,0,0.968,0.139,1.244,0.277l-0.139,1.105H158.276   L158.276,125.67z"/>
	<path fill-rule="evenodd" clip-rule="evenodd" d="M162.283,129.123c0.829,0,0.968-0.275,1.244-0.967l0.69-3.455   c0-0.275,0-0.551,0-0.828s-0.139-0.414-0.553-0.414c-0.138,0-0.276,0-0.414,0v-0.139l1.52-0.414h0.553l-0.968,5.25   c-0.138,0.139-0.138,0.275-0.138,0.414c0,0.414,0.415,0.553,0.69,0.553v0.139h-2.763L162.283,129.123L162.283,129.123z"/>
	<path fill-rule="evenodd" clip-rule="evenodd" d="M168.363,124.701c0-0.551,0.275-1.52,1.243-1.52c0.415,0,0.829,0.277,0.829,0.969   c0,0.828-0.414,1.52-1.244,1.52C168.639,125.67,168.363,125.393,168.363,124.701L168.363,124.701z M168.639,129.4   c1.383,0,2.211-0.83,2.211-2.074c0-0.967-0.553-1.242-0.967-1.381l0,0c0.829-0.139,1.52-0.553,1.52-1.795   c0-0.969-0.69-1.383-1.658-1.383c-1.381,0-2.349,0.691-2.349,1.797c0,0.828,0.415,1.105,0.829,1.381l0,0   c-0.829,0-1.52,0.83-1.52,1.934C166.705,128.984,167.396,129.4,168.639,129.4L168.639,129.4z M167.672,128.018   c0-0.967,0.415-1.934,1.243-1.934c0.553,0,1.106,0.414,1.106,1.105c0,0.967-0.415,1.795-1.383,1.795   C167.948,128.984,167.672,128.57,167.672,128.018L167.672,128.018z"/>
	<path fill-rule="evenodd" clip-rule="evenodd" d="M176.101,123.32h-1.935c-0.829,0-0.968,0.414-1.105,0.967h-0.276l0.276-1.381   h4.007v0.414l-3.73,5.941h-0.967L176.101,123.32L176.101,123.32z"/>
	<path fill-rule="evenodd" clip-rule="evenodd" d="M178.587,125.67c0.139-0.139,0.415-0.277,1.105-0.277   c1.105,0,1.658,0.691,1.658,1.658c0,1.105-0.829,2.35-2.625,2.35c-0.968,0-1.658-0.277-1.935-0.277l0.139-0.414   c0.138,0,0.69,0.275,1.381,0.275c1.244,0,2.073-0.828,2.073-1.934c0-0.828-0.553-1.244-1.105-1.244   c-0.691,0-0.968,0.416-1.105,0.553h-0.553l0.829-3.453h3.315l-0.138,0.414h-2.487L178.587,125.67L178.587,125.67z"/>
</g>
</svg>